<svg xmlns="http://www.w3.org/2000/svg" viewBox="0 0 100 100" width="100" height="100" role="img" aria-label="Saga Bulk Reporter">
  <title>Saga Bulk Reporter — matrix mark</title>
  <!-- empty cells (firme × luni grid) -->
  <g fill="#E8E8E8">
    <rect x="26" y="0"  width="22" height="22" rx="3.5"/>
    <rect x="52" y="0"  width="22" height="22" rx="3.5"/>
    <rect x="78" y="0"  width="22" height="22" rx="3.5"/>
    <rect x="0"  y="26" width="22" height="22" rx="3.5"/>
    <rect x="52" y="26" width="22" height="22" rx="3.5"/>
    <rect x="78" y="26" width="22" height="22" rx="3.5"/>
    <rect x="0"  y="52" width="22" height="22" rx="3.5"/>
    <rect x="26" y="52" width="22" height="22" rx="3.5"/>
    <rect x="78" y="52" width="22" height="22" rx="3.5"/>
    <rect x="0"  y="78" width="22" height="22" rx="3.5"/>
    <rect x="26" y="78" width="22" height="22" rx="3.5"/>
    <rect x="52" y="78" width="22" height="22" rx="3.5"/>
  </g>
  <!-- blue diagonal: every firmă × every lună in one run -->
  <g fill="#0066CC">
    <rect x="0"  y="0"  width="22" height="22" rx="3.5"/>
    <rect x="26" y="26" width="22" height="22" rx="3.5"/>
    <rect x="52" y="52" width="22" height="22" rx="3.5"/>
    <rect x="78" y="78" width="22" height="22" rx="3.5"/>
  </g>
</svg>
